<svg id="Group_4" data-name="Group 4" xmlns="http://www.w3.org/2000/svg" xmlns:xlink="http://www.w3.org/1999/xlink" width="568.292" height="150.421" viewBox="0 0 568.292 150.421">
  <defs>
    <clipPath id="clip-path">
      <rect id="Rectangle_2" data-name="Rectangle 2" width="568.292" height="150.421" fill="none"/>
    </clipPath>
  </defs>
  <g id="Group_3" data-name="Group 3" clip-path="url(#clip-path)">
    <path id="Path_32" data-name="Path 32" d="M415.061,56.438c.112,2.5-.2,4.817.157,7.158a25.8,25.8,0,0,1,.087,3.894c-.01,8.15-.055,16.3-.021,24.451.006,1.291-.325,1.727-1.685,1.7-5.511-.089-11.024-.089-16.535-.041-1.14.01-1.508-.363-1.477-1.444.066-2.348.089-4.7.089-7.047q0-32.405-.012-64.811c0-1.649-.062-3.3-.149-4.946-.038-.714.112-1.132.921-1.155,6.312-.181,12.624-.214,18.934.027a1.992,1.992,0,0,1,1.822,1.3q3.009,6.615,6.045,13.218c2.282,5,4.418,10.066,6.886,14.97,1.8,3.588,3.315,7.284,4.88,10.967.105.247.355.606.545.61.464.013.609-.477.75-.82,1.035-2.519,2.015-5.059,3.054-7.576,3.014-7.3,6.106-14.576,9.045-21.91,1.157-2.885,2.544-5.675,3.494-8.65.628-1.968,1.183-2.22,3.326-2.221,3.608,0,7.231.189,10.818-.086,2.146-.164,4.241.328,6.351.059,1.255-.16,1.642.3,1.634,1.559-.051,7.451-.044,14.9-.018,22.353.008,2.384.5,4.817.391,7.122-.24,5.089-.1,10.167-.149,15.247-.091,10.2-.041,20.4-.051,30.6,0,.3-.011.6-.022.9-.071,1.906-.071,1.824-1.989,1.8-5.36-.069-10.723-.1-16.083-.062-1.348.01-1.7-.462-1.69-1.746.062-6.6.185-13.2,0-19.8-.115-4.2-.156-8.392-.3-12.587-.045-1.346.52-2.636.262-3.991-.458-.007-.638.255-.821.674q-4.156,9.5-8.363,18.975c-1.374,3.105-2.771,6.2-4.142,9.307a1.907,1.907,0,0,1-1.938,1.334c-2.6-.045-5.211-.029-7.816-.021a1.438,1.438,0,0,1-1.432-.876c-1.7-3.5-3.33-7.039-5.145-10.48-2.371-4.5-4.275-9.232-7.038-13.53a19.51,19.51,0,0,1-1.44-3.226,1.7,1.7,0,0,0-1.182-1.2" transform="translate(-80.777 -2.858)" fill="#ffb900"/>
    <path id="Path_33" data-name="Path 33" d="M88.968,68.841q0-12.679,0-25.359c0-4.155.014-4.151,4.074-4.144,4.361.007,8.722.049,13.082-.016,1.32-.02,1.87.439,1.751,1.73a5.353,5.353,0,0,0-.023.749c.021.438-.158,1.023.255,1.257.53.3.867-.308,1.268-.558,7.388-4.605,15.09-5.776,23.275-2.231a17.835,17.835,0,0,1,6.961,5.048c.586.72,1.119.818,1.849.095,5.429-5.377,12.084-7.371,19.59-7.037,8,.355,14.127,4.007,18.52,10.577a17.961,17.961,0,0,1,2.981,9.057c.67,10.54.064,21.081.286,31.619.054,2.55-.041,5.1.041,7.65.035,1.1-.353,1.312-1.373,1.3-5.162-.06-10.325-.091-15.486-.025-1.436.018-1.938-.4-1.932-1.864.047-10.8-.063-21.609.069-32.411.057-4.652-2.484-7.738-6.523-9.182-3.565-1.274-8.186.271-10.616,3.423-1.48,1.919-1.479,4.21-1.487,6.45q-.059,15.83.011,31.661c.01,1.5-.351,1.977-1.9,1.946-4.96-.1-9.923-.039-14.885-.037-2.211,0-2.131,0-2.13-2.126.006-10.9.036-21.808-.089-32.71a8.857,8.857,0,0,0-7.3-8.878,9.813,9.813,0,0,0-11.127,6.33,6.4,6.4,0,0,0-.205,2.079q-.006,16.656,0,33.311c0,2.059.006,2.021-2.129,2.009-5.013-.029-10.025-.044-15.037,0-1.228.01-1.779-.248-1.77-1.654.059-9.352.03-18.705.03-28.058Z" transform="translate(-18.169 -7.801)" fill="#ffb900"/>
    <path id="Path_34" data-name="Path 34" d="M32.873,92.974c-11.329-.126-20.594-2.541-28.377-9.26C3.171,82.569,1.927,81.332.637,80.148a1.359,1.359,0,0,1-.031-2.282q5.117-5.073,10.173-10.207c.807-.819,1.343-.808,2.195.06C18.089,72.929,24,76.467,31.64,76.165a51.57,51.57,0,0,0,5.982-.241,12.316,12.316,0,0,0,5.584-2.661c2.367-1.8,2.691-6.379.813-9.064-1.925-2.753-4.818-4.147-7.727-5.463-5.2-2.351-10.806-3.668-15.922-6.239C14.947,49.772,10.219,46.327,7.4,40.715c-2.262-4.5-2.233-9.241-1.919-14.069a20.611,20.611,0,0,1,7.739-14.72A26.593,26.593,0,0,1,27.022,5.8a55.819,55.819,0,0,1,9.142-.86A45.518,45.518,0,0,1,52.1,8.325c3.336,1.347,5.991,3.564,8.835,5.576.649.459,1.237,1,1.855,1.506,1.2.977,1.291,1.5.218,2.52-2.913,2.761-5.888,5.458-8.8,8.219a7.805,7.805,0,0,0-1.541,1.982c-.73,1.393-1.4,1.005-2.226.125a21.333,21.333,0,0,0-8.28-5.8,21.485,21.485,0,0,0-13.687-.174c-2.481.755-3.844,2.985-4.241,5.48s.9,4.5,2.832,6c4.323,3.344,9.457,4.962,14.549,6.661,5.944,1.981,11.606,4.6,16.116,9A20.428,20.428,0,0,1,63.4,59.257c1.963,7.9,1.367,15.416-3.361,22.078-3.754,5.291-9.3,8.376-15.6,9.979a53.162,53.162,0,0,1-11.566,1.66" transform="translate(0 -1.008)" fill="#ffb900"/>
    <path id="Path_35" data-name="Path 35" d="M565.327,72.793q0,12.755,0,25.51c0,.5-.023,1-.04,1.5-.027.839-.366,1.208-1.3,1.2-5.162-.038-10.325-.043-15.487.024-1.371.018-1.962-.434-1.818-1.814a15,15,0,0,0,.08-2.1c-.019-.57.357-1.306-.258-1.673-.658-.392-1.073.335-1.514.667a23.419,23.419,0,0,1-10.647,4.58c-8.153,1.245-15.225-1.159-21.262-6.65-5.406-4.919-7.939-11.2-8.829-18.359a27.479,27.479,0,0,1,2.3-15.274A26.692,26.692,0,0,1,518,47.743a24.974,24.974,0,0,1,9.618-3.141c4.078-.353,8.263-.243,12.064,1.771,2.06,1.091,4.394,1.673,6.154,3.334.469.443.824.258.831-.414.011-1.15.069-2.3.006-3.45-.046-.837.247-1.2,1.079-1.2q8.27,0,16.538-.029c.729,0,.972.375.983,1.02.013.85.041,1.7.041,2.55q0,12.305,0,24.61h.014m-30.6-13.515c-7.186-.4-13.126,5.862-13.191,13.309-.048,5.521,5.161,12.669,13.35,12.562,7.974-.1,12.848-6.3,12.7-12.354-.2-8.115-5.118-13.556-12.856-13.517" transform="translate(-102.937 -9.077)" fill="#ffb900"/>
    <path id="Path_36" data-name="Path 36" d="M329.933,75.118c-6.563,0-13.127.018-19.69-.017-1.22-.006-1.365.4-.932,1.435,2.158,5.139,6.178,7.739,11.553,8.481a18.07,18.07,0,0,0,13.513-3.408,11.449,11.449,0,0,0,1.054-.842c1.816-1.674,1.814-1.679,3.588.163a89.117,89.117,0,0,0,7.159,7.055c1.243,1.03,1.062,1.771.1,2.734a29,29,0,0,1-14.767,8.114,39.229,39.229,0,0,1-15.946.185A31.1,31.1,0,0,1,296.2,87.187a28.632,28.632,0,0,1-5.858-15.758,31.193,31.193,0,0,1,3.788-17.819,30.24,30.24,0,0,1,11.819-11.375c6.133-3.492,12.778-4.431,19.67-3.879a33.386,33.386,0,0,1,11.145,3.4c2.491,1.139,4.307,3.012,6.287,4.734,5.579,4.855,7.939,11.2,8.359,18.381.143,2.441.081,4.9-.007,7.348-.095,2.607-.461,2.895-2.984,2.894q-9.241,0-18.482,0v.007m-8.577-12.924v.048c3.754,0,7.508-.024,11.262.014,1.134.011,1.487-.391,1.038-1.428a17.572,17.572,0,0,0-1.241-2.713c-2.928-4.506-7.338-5.963-12.336-5.417a12.546,12.546,0,0,0-10.592,7.938c-.463,1.065-.376,1.621,1.058,1.586,3.6-.087,7.206-.029,10.81-.029" transform="translate(-59.28 -7.804)" fill="#ffb900"/>
    <path id="Path_37" data-name="Path 37" d="M672.758,27.936c3.057,0,6.115.049,9.17-.023,1.315-.031,1.636.606,1.631,1.72-.013,3.229-.058,6.461.034,9.688.021.723-.967,1.634.075,2.124.6.284,1.468,0,2.215,0,3.458,0,6.915.042,10.372,0,.976-.012,1.293.314,1.283,1.274-.045,4.4-.015,8.8-.058,13.2-.017,1.783-.227,1.919-2.043,1.9-3.406-.037-6.813-.045-10.219-.105-1.228-.021-1.86-.048-1.756,1.724a115.78,115.78,0,0,1,.031,13.643c-.432,7.2,6.44,9.111,11.5,6.443,1.281-.676,1.571-.526,2.013.808,1.319,3.976,2.849,7.881,4.245,11.832.656,1.858.552,2.11-1.264,2.815a36.018,36.018,0,0,1-20.614,1.876c-4.721-.954-8.875-2.823-12.118-6.381a19.14,19.14,0,0,1-5.023-10.689c-.789-6.415-.193-12.862-.329-19.293-.059-2.78,0-2.772-2.85-2.728-1.653.025-3.307-.014-4.959.029-.856.022-1.275-.208-1.268-1.169q.044-7.05-.012-14.1c-.005-.77.238-1.1,1.023-1.079a53.833,53.833,0,0,1,6.329.157c1.568.224,1.728-.472,1.732-1.59.009-3.4.056-6.8-.038-10.2-.04-1.447.436-1.921,1.881-1.876,3,.092,6.012.027,9.018.027Z" transform="translate(-133.328 -5.701)" fill="#ffb900"/>
    <path id="Path_38" data-name="Path 38" d="M592.386,72.756c0-8.8.028-17.6-.029-26.394-.009-1.351.492-1.734,1.733-1.723,5.109.045,10.219.08,15.327.029,1.356-.014,1.8.486,1.681,1.759-.076.794-.053,1.6-.056,2.4,0,.341-.063.793.359.883a1.171,1.171,0,0,0,.784-.333,25.251,25.251,0,0,1,3.588-2.441c3.261-1.831,6.812-2.121,10.436-2.29A16.7,16.7,0,0,1,638.362,48.9c.793.685.987,1.157.269,2.063-3.289,4.152-6.52,8.348-9.734,12.556-.466.61-.892.637-1.323.152-2.966-3.341-9.28-2.87-12.615-.446a8.736,8.736,0,0,0-3.614,7.113c-.138,9.6-.1,19.195-.106,28.792,0,1.938.06,1.92-1.863,1.912-5.059-.02-10.119-.043-15.178-.018-1.242.006-1.788-.36-1.781-1.721.049-8.847.025-17.7.025-26.544Z" transform="translate(-120.98 -9.113)" fill="#ffb900"/>
    <path id="Path_39" data-name="Path 39" d="M277.413,42.18a51.633,51.633,0,0,1,.058,10.738,67.8,67.8,0,0,1-4.081,18.767,56.326,56.326,0,0,1-6.425,13,67.955,67.955,0,0,1-5.215,7.215c-.742.8-1.521,1.567-2.3,2.332-.241.238-.457.444-.869.107-3.166-2.584-6.645-4.727-10.016-7.02-1.476-1-1.391-.972-.189-2.374a67.2,67.2,0,0,0,5.866-8.1,47.245,47.245,0,0,0,4.732-10.121,47.876,47.876,0,0,0,2.9-14.078,89.456,89.456,0,0,0-.09-12.674,61.694,61.694,0,0,0-3.906-14.715c-2.219-5.85-5.706-10.84-9.585-15.634-1.138-1.407-1.063-1.554.471-2.437A62.75,62.75,0,0,0,255.7,2.462c1.015-.78,2.169-1.352,3.127-2.238.623-.577,1.077.086,1.455.546A98.8,98.8,0,0,1,266.7,9.631a64.929,64.929,0,0,1,8.456,19.063,66.02,66.02,0,0,1,2.257,13.486" transform="translate(-50.542 0)" fill="#ffb900"/>
    <path id="Path_40" data-name="Path 40" d="M235.7,82q0,9.526,0,19.052c0,2.154-.009,2.123-2.24,2.117-4.911-.014-9.823-.037-14.733.039-1.44.022-1.779-.557-1.775-1.867q.054-19.2.03-38.407c0-2.052-.007-2.032,2.069-2.031,5.011,0,10.023.039,15.033-.054,1.327-.025,1.706.339,1.695,1.649-.057,6.5-.026,13-.026,19.5H235.7" transform="translate(-44.309 -12.427)" fill="#ffb900"/>
    <path id="Path_41" data-name="Path 41" d="M542.748,162.993c0,5.1-.017,10.2.018,15.3.006.8-.265,1.117-1.023,1.061-2.512-.187-5.081.519-7.546-.493a1.357,1.357,0,0,0-1.14.166c-3.071,1.618-6.4,1.341-9.521.617-4.341-1.007-8.512-6.573-8.952-11.06-.683-6.961,4.681-13.026,10.645-14.176,2.9-.559,6.02-.685,8.654,1.317.547.415.621.29.848-.325a6.31,6.31,0,0,0,.138-2.5c-.045-1.748-.093-3.5-.2-5.244-.055-.926.321-1.245,1.22-1.228,1.954.038,3.91.06,5.862,0,.9-.029,1.054.329,1.049,1.126-.03,5.15-.016,10.3-.016,15.45h-.04m-8.064,4.094c-.022-3.623-2.339-5.946-6-5.863a6.154,6.154,0,0,0-5.729,6.391,6.042,6.042,0,0,0,6.159,5.326,5.417,5.417,0,0,0,5.574-5.854" transform="translate(-105.084 -29.903)" fill="#fff"/>
    <path id="Path_42" data-name="Path 42" d="M183.043,168.968c0,3.651-.053,7.3.03,10.951.029,1.233-.4,1.592-1.542,1.478-2.369-.236-4.755.279-7.147-.45-1.029-.314-2.184.694-3.364.941a13.283,13.283,0,0,1-16.066-13.1c.076-2.176.364-4.405,1.494-6,2.647-3.727,6.033-6.661,11.1-6.567,2.332.043,4.72-.342,6.673,1.454a.568.568,0,0,0,.865-.318c.24-1.148,1.064-.953,1.859-.935,1.553.036,3.111.13,4.658.037,1.25-.075,1.483.424,1.462,1.553-.066,3.649-.025,7.3-.025,10.951m-13.577-5.523c-3.554,0-5.968,2.3-6.016,5.591a5.723,5.723,0,0,0,5.572,6.013c3.485-.025,6.131-1.989,6.166-6.057a5.471,5.471,0,0,0-5.722-5.547" transform="translate(-31.646 -31.905)" fill="#fff"/>
    <path id="Path_43" data-name="Path 43" d="M303.367,156.37c1.9.022,3.8.09,5.7.049.884-.019,1.114.315,1.108,1.134q-.1,11.392-.129,22.787c0,.848-.193,1.113-1.077,1.064-1.9-.107-3.893.252-5.678-.221a7.447,7.447,0,0,0-4.243.364c-5.221,1.443-9.84.311-13.549-3.7a12.206,12.206,0,0,1-2.6-13.468c1.677-4.231,6.419-8.413,11.679-8.136a36.406,36.406,0,0,1,3.729.138,6.2,6.2,0,0,1,3.427,1.554c.52-.473.567-1.2,1.143-1.554l.487-.012m-6.855,7.077a5.67,5.67,0,0,0-6.042,5.751c-.138,3.328,3.388,5.862,5.778,5.906a5.731,5.731,0,0,0,6-6.031c0-3.456-2.229-5.644-5.734-5.626" transform="translate(-57.577 -31.908)" fill="#fff"/>
    <path id="Path_44" data-name="Path 44" d="M121.542,179.563a1.719,1.719,0,0,1-.519-1.482q0-15.146-.04-30.292c0-1,.239-1.426,1.334-1.37,1.7.086,3.406.045,5.108,0,.886-.026,1.362.11,1.329,1.194-.08,2.587-.026,5.179-.026,8.235a8.086,8.086,0,0,1,5.535-1.642c4.564-.08,9.176,3.864,9.308,8.566.145,5.145.072,10.3.072,15.443,0,1.069-.88,1.253-1.652,1.3a33.84,33.84,0,0,1-5.847,0v-.061l-.063-.033c-.556-.375-.631-.814-.637-1.535-.038-4.678.5-9.379-.255-14.028-.419-2.579-2.568-3.508-4.884-2.264a2.642,2.642,0,0,0-1.1,2.584c-.037,4.638-.06,9.277.021,13.913.02,1.155-.366,1.49-1.419,1.475-2.1-.03-4.2-.009-6.292-.009l.021,0" transform="translate(-24.709 -29.902)" fill="#fff"/>
    <path id="Path_45" data-name="Path 45" d="M573.059,171.824c-2.655,0-5.309-.006-7.964.009-.332,0-.771-.143-.976.2-.26.434.2.754.407,1.019a5.877,5.877,0,0,0,8.54.65,2.463,2.463,0,0,1,2.166-.641c1.666.258,3.317.619,4.98.9.878.148,1.22.395.723,1.354a12.151,12.151,0,0,1-7.117,6c-6.691,2.266-12.883-.016-16.282-6.022a12.467,12.467,0,0,1,3.408-16.211c8.065-6.42,19.224-1.908,21.467,7.853a15.3,15.3,0,0,1,.1,4.029c-.039.894-.855.859-1.492.864-2.655.02-5.309.009-7.964.009Zm-3.582-5.5V166.3c1.2,0,2.4.025,3.6-.011.543-.017,1.307.446,1.567-.359.217-.671-.283-1.232-.744-1.7-1.8-1.818-6.427-1.972-8.336-.257a4.075,4.075,0,0,0-.861,1.2c-.366.729-.31,1.217.737,1.168,1.345-.062,2.694-.015,4.043-.015" transform="translate(-113.531 -31.879)" fill="#fff"/>
    <path id="Path_46" data-name="Path 46" d="M439.728,171.825c-2.605,0-5.211-.009-7.815.01-.376,0-.9-.156-1.1.259-.236.484.237.819.511,1.146,1.837,2.2,6.293,2.614,8.3.616a2.638,2.638,0,0,1,2.542-.78c1.663.276,3.3.687,4.963.988,1.054.191.982.544.464,1.353a15,15,0,0,1-6.385,5.624,12.629,12.629,0,0,1-9.56.575,12.988,12.988,0,0,1-8.875-10.047c-1.043-5.654,1.339-10.094,6.108-13.319,8.034-5.431,18.518.025,20.121,8.549a17.081,17.081,0,0,1,.108,3.887c-.041,1.017-.727,1.157-1.57,1.151-2.605-.021-5.211-.008-7.816-.012m-3.517-5.455v-.088c1.346,0,2.7-.068,4.035.019s1.334-.458.767-1.349a4.5,4.5,0,0,0-.851-1.022,6.837,6.837,0,0,0-7.993.05,3.084,3.084,0,0,0-.922,1.333c-.273.754-.1,1.1.777,1.069,1.394-.048,2.791-.013,4.187-.013" transform="translate(-86.297 -31.877)" fill="#fff"/>
    <path id="Path_47" data-name="Path 47" d="M246.311,171.8c-2.656,0-5.312.014-7.967-.007-1.011-.008-1.1.3-.56,1.1,1.611,2.393,6.289,2.994,8.6.917a2.905,2.905,0,0,1,2.855-.685c1.518.314,3.044.593,4.567.879.819.154,1.007.467.564,1.272a12.773,12.773,0,0,1-5.689,5.372,13.355,13.355,0,0,1-19.234-9.446,11.874,11.874,0,0,1,.662-6.359,12.559,12.559,0,0,1,8.76-8.394,13.028,13.028,0,0,1,11.344,1.993,13.463,13.463,0,0,1,5.769,11.675c-.018,1.209-.489,1.719-1.706,1.7-2.655-.038-5.311-.012-7.966-.012Zm-3.3-5.5v-.022c1.346,0,2.694-.036,4.039.01,1.211.041,1.256-.492.771-1.361-.87-1.557-2.445-1.97-3.992-2.341-1.88-.451-4.835.789-5.631,2.312-.34.649-.833,1.46.626,1.412,1.394-.045,2.792-.01,4.187-.01" transform="translate(-46.824 -31.853)" fill="#fff"/>
    <path id="Path_48" data-name="Path 48" d="M342.791,156.3c.855,1.414,1.686.8,2.968.362,5.2-1.775,11.2.719,12.551,6.766a10.074,10.074,0,0,1,.227,2.084c.043,4.8.03,9.6.1,14.4.018,1.159-.38,1.644-1.541,1.638q-2.853-.013-5.706.1c-1.07.044-.906-.654-.907-1.289,0-4.1.006-8.2-.019-12.3a13.7,13.7,0,0,0-.231-2.378,3.31,3.31,0,0,0-5.346-1.888,2.41,2.41,0,0,0-.7,1.868c-.165,4.748-.23,9.5.016,14.241.064,1.243-.354,1.7-1.594,1.65-1.751-.065-3.506-.027-5.258.012-.84.019-1.229-.229-1.358-1.147a12.784,12.784,0,0,1-.18-1.763c-.013-6.849.029-13.7-.049-20.548-.017-1.437.538-1.786,1.814-1.776a29.817,29.817,0,0,0,5.243-.04l-.031.012" transform="translate(-68.575 -31.881)" fill="#fff"/>
    <path id="Path_49" data-name="Path 49" d="M400.628,156.237c4.989-.306,8.349,2.242,11.214,5.761.46.564.282.809-.289,1.091a29.863,29.863,0,0,0-4.632,2.753c-.514.382-.818.278-1.244-.185-3.394-3.687-8.155-3.067-10.309,1.494-1.5,3.174,1.264,7.519,4.917,7.7,2.2.111,4.2-.208,5.467-2.3.2-.333.464-.742.927-.318,1.389,1.269,3.205,1.824,4.738,2.851.651.437.8.748.22,1.49a13.83,13.83,0,0,1-11.007,5.7,12.612,12.612,0,0,1-11.083-6.228c-5.317-8.36.292-17.313,8.081-19.616a13.8,13.8,0,0,1,3-.189" transform="translate(-79.133 -31.904)" fill="#fff"/>
    <path id="Path_50" data-name="Path 50" d="M208.161,170.382c1.032-2.976,1.942-5.766,2.975-8.511a30.31,30.31,0,0,0,1.538-4.515c.118-.574.327-.9.957-.891,2.054.014,4.108,0,6.162.006,1.219.006.9.758.654,1.427-1.662,4.572-3.348,9.136-5,13.713-1.024,2.839-2.049,5.678-2.978,8.548-.341,1.054-.76,1.579-1.985,1.475a36.131,36.131,0,0,0-4.955-.032,1.627,1.627,0,0,1-1.868-1.285c-1.814-5.176-3.665-10.339-5.5-15.505-.818-2.3-1.606-4.611-2.473-6.892-.407-1.069-.282-1.576,1-1.533,1.6.053,3.208.045,4.808-.02,1.373-.056,1.856.634,2.251,1.874,1.228,3.845,2.627,7.635,3.97,11.444a4.157,4.157,0,0,0,.446.7" transform="translate(-39.924 -31.935)" fill="#fff"/>
    <path id="Path_51" data-name="Path 51" d="M226.445,10.668c2.745-.436,5.055.968,7.043,2.954A9.224,9.224,0,0,1,236.4,20.9c-.351,4.964-3.27,10.27-10.234,10.177-5.621-.076-10.053-5.214-9.993-10.417.06-5.37,4.578-10.552,10.269-9.992" transform="translate(-44.151 -2.162)" fill="#ffb900"/>
    <path id="Path_52" data-name="Path 52" d="M475.3,168.927c0-3.6.056-7.2-.028-10.79-.033-1.42.5-1.837,1.836-1.732,1.394.11,2.8.037,4.2.094.743.03,1.6-.223,1.895.949.138.553.741.259,1.145.029a6.672,6.672,0,0,1,3.383-.949c.949,0,1.418.252,1.286,1.28a21.016,21.016,0,0,0-.112,4.337c.061.78-.261,1.091-1.038,1.05-4.366-.232-4.241,1.238-4.267,4.471-.032,3.9,0,7.793.012,11.69.006,2.2.01,2.207-2.214,2.238-1.4.021-2.8.018-4.2.038-1.829.027-1.884-.007-1.889-1.914-.012-3.6,0-7.194-.006-10.791" transform="translate(-97.066 -31.941)" fill="#fff"/>
    <path id="Path_53" data-name="Path 53" d="M505.915,179.51c.029,2.048.029,2.052-1.915,2.074-1.7.019-3.407.007-5.11.048-.841.021-1.24-.432-1.133-1.159a69.088,69.088,0,0,0,.226-9.244c.052-4.3.041-8.6,0-12.9-.014-1.377.226-2.156,1.913-1.906a21.605,21.605,0,0,0,4.2.037c1.017-.05,1.758.113,1.85,1.294l-.057.029.05,0c-.255,7.253-.063,14.508-.022,21.762l-.073-.017Z" transform="translate(-101.656 -31.937)" fill="#fff"/>
    <path id="Path_54" data-name="Path 54" d="M379.852,168.878c0,3.693-.041,7.387.023,11.079.022,1.274-.553,1.65-1.683,1.638-1.449-.014-2.9.008-4.348.018-1.293.01-1.9-.287-1.872-1.914.139-7.134.063-14.273.061-21.409,0-1.892-.008-1.876,1.924-1.841a40.8,40.8,0,0,0,4.346-.028c1.265-.114,1.555.4,1.543,1.528-.041,3.642-.015,7.286-.015,10.929Z" transform="translate(-75.97 -31.944)" fill="#fff"/>
    <path id="Path_55" data-name="Path 55" d="M502,146.441c.3,0,.6,0,.9,0,3.123-.025,3.123-.026,3.105,3.061-.017,2.879-.017,2.882-2.814,2.92-1.3.018-2.6-.045-3.887.05-.958.071-1.26-.364-1.256-1.19.006-1.292.068-2.585.033-3.877-.021-.815.333-1.025,1.079-.987.945.048,1.894.011,2.841.011Z" transform="translate(-101.72 -29.903)" fill="#fff"/>
    <path id="Path_56" data-name="Path 56" d="M375.8,152.44h-2.248c-1.391,0-2.184-.762-1.826-2.078a10.183,10.183,0,0,0,.229-2.77c0-.932.37-1.2,1.257-1.176,1.747.051,3.5.069,5.245-.01,1.009-.045,1.331.339,1.3,1.283-.037,1.194-.01,2.392.015,3.587.018.9-.38,1.241-1.279,1.18s-1.8-.014-2.7-.017" transform="translate(-75.901 -29.901)" fill="#fff"/>
    <path id="Path_57" data-name="Path 57" d="M308.747,156.406c-.164,0-.327.01-.487.013.165-.006.326-.009.487-.013" transform="translate(-62.958 -31.944)" fill="#ffb900"/>
    <path id="Path_58" data-name="Path 58" d="M139.942,187.9l.063.033,0,.062c-.022.012-.056.04-.064.033a.135.135,0,0,1-.052-.076c0-.014.034-.035.055-.052" transform="translate(-28.57 -38.375)" fill="#fff"/>
    <path id="Path_59" data-name="Path 59" d="M508.029,158.136l-.05,0,.057-.029-.006.033" transform="translate(-103.748 -32.29)" fill="#ffb900"/>
    <path id="Path_60" data-name="Path 60" d="M344.594,156.346l.031-.012-.031.012" transform="translate(-70.378 -31.929)" fill="#ffb900"/>
    <path id="Path_61" data-name="Path 61" d="M507.994,185.448l-.072.018.073.017v-.035" transform="translate(-103.736 -37.875)" fill="#fff"/>
    <path id="Path_62" data-name="Path 62" d="M121.679,188.071l-.021,0,.021,0" transform="translate(-24.847 -38.41)" fill="#fff"/>
  </g>
</svg>
