<svg id="Group_503" data-name="Group 503" xmlns="http://www.w3.org/2000/svg" xmlns:xlink="http://www.w3.org/1999/xlink" width="300.2" height="300.2" viewBox="0 0 300.2 300.2">
  <defs>
    <clipPath id="clip-path">
      <rect id="Rectangle_259" data-name="Rectangle 259" width="300.2" height="300.2" fill="none"/>
    </clipPath>
  </defs>
  <g id="Group_502" data-name="Group 502" clip-path="url(#clip-path)">
    <path id="Path_1054" data-name="Path 1054" d="M300.2,150.1A150.1,150.1,0,1,1,150.1,0,150.1,150.1,0,0,1,300.2,150.1" fill="#ffb800" fill-rule="evenodd"/>
    <path id="Path_1055" data-name="Path 1055" d="M136.1,405.868a13.609,13.609,0,0,0-3.045-1.912,35.16,35.16,0,0,0-3.329-1.322q-1.677-.567-3.069-1.133a7.427,7.427,0,0,1-2.243-1.346,2.653,2.653,0,0,1-.85-2.054A2.355,2.355,0,0,1,124.7,396a5.6,5.6,0,0,1,3.069-.732,7.759,7.759,0,0,1,3.47.755,11.246,11.246,0,0,1,3.045,2.314l4.816-4.769a13.15,13.15,0,0,0-4.792-3.352,16.274,16.274,0,0,0-6.4-1.227,15.071,15.071,0,0,0-6.091,1.157,9.832,9.832,0,0,0-4.768,12.889,8.306,8.306,0,0,0,2.242,2.786,13.843,13.843,0,0,0,3.046,1.841q1.652.733,3.329,1.3t3.069,1.18a7.305,7.305,0,0,1,2.243,1.463,3,3,0,0,1,.85,2.219,2.674,2.674,0,0,1-1.3,2.36,6.659,6.659,0,0,1-3.659.85,9.76,9.76,0,0,1-4.556-1.015,12.133,12.133,0,0,1-3.565-2.857l-4.816,4.769a16.429,16.429,0,0,0,5.406,4.084,16.909,16.909,0,0,0,7.058,1.345q6,0,9.4-2.715a9.049,9.049,0,0,0,3.4-7.483,10.054,10.054,0,0,0-.85-4.367,8.563,8.563,0,0,0-2.243-2.927" transform="translate(-74.939 -255.862)" fill="#3f2016" fill-rule="evenodd"/>
    <path id="Path_1056" data-name="Path 1056" d="M227.591,420.587a9.733,9.733,0,0,0-4.7-1.11,10.045,10.045,0,0,0-4.839,1.157,8.965,8.965,0,0,0-2.488,1.97,8.062,8.062,0,0,0-2.375-2.041,8.594,8.594,0,0,0-4.32-1.086,9.728,9.728,0,0,0-4.58,1.062,8.2,8.2,0,0,0-1.605,1.1v-1.691h-7.224v22.946h7.224V429.486a3.707,3.707,0,0,1,.5-1.983,3.438,3.438,0,0,1,1.346-1.251,4.085,4.085,0,0,1,1.936-.449,3.748,3.748,0,0,1,2.62.968,3.487,3.487,0,0,1,1.062,2.715v13.409h7.224V429.486a3.707,3.707,0,0,1,.5-1.983,3.441,3.441,0,0,1,1.346-1.251,4.084,4.084,0,0,1,1.935-.449,3.751,3.751,0,0,1,2.621.968,3.488,3.488,0,0,1,1.062,2.715v13.409h7.224V428.684a9.594,9.594,0,0,0-1.2-4.934,8.281,8.281,0,0,0-3.257-3.163" transform="translate(-128.568 -275.916)" fill="#3f2016" fill-rule="evenodd"/>
    <path id="Path_1057" data-name="Path 1057" d="M314.848,394.126a3.766,3.766,0,0,0-2.809,1.133,4.142,4.142,0,0,0,0,5.642,3.725,3.725,0,0,0,2.809,1.157,3.65,3.65,0,0,0,2.785-1.157,4.207,4.207,0,0,0,0-5.642,3.689,3.689,0,0,0-2.785-1.133" transform="translate(-204.517 -259.241)" fill="#3f2016" fill-rule="evenodd"/>
    <rect id="Rectangle_258" data-name="Rectangle 258" width="7.224" height="16.34" transform="translate(106.695 150.639)" fill="#3f2016"/>
    <path id="Path_1058" data-name="Path 1058" d="M396.5,420.8a12.006,12.006,0,0,0-6-1.464,12.637,12.637,0,0,0-6.279,1.558,12.147,12.147,0,0,0-4.391,16.619,11.457,11.457,0,0,0,4.556,4.273,13.989,13.989,0,0,0,6.633,1.534,13.764,13.764,0,0,0,5.288-.991,10.71,10.71,0,0,0,4.108-2.975l-3.966-3.966a6.735,6.735,0,0,1-2.408,1.77,7.674,7.674,0,0,1-3.069.59,6.255,6.255,0,0,1-3.187-.779,5.243,5.243,0,0,1-2.077-2.219,6.129,6.129,0,0,1-.4-1.021l16.431-.041a15.628,15.628,0,0,0,.26-1.581,12.627,12.627,0,0,0,.071-1.3,11.755,11.755,0,0,0-1.487-5.949,10.662,10.662,0,0,0-4.084-4.06m-11.191,7.972a6.14,6.14,0,0,1,.355-.937,5.163,5.163,0,0,1,1.936-2.2,5.464,5.464,0,0,1,2.951-.779,5.082,5.082,0,0,1,2.715.685,4.262,4.262,0,0,1,1.676,1.983,6.585,6.585,0,0,1,.382,1.214Z" transform="translate(-248.755 -275.826)" fill="#3f2016" fill-rule="evenodd"/>
    <path id="Path_1059" data-name="Path 1059" d="M589.171,427.495a8.625,8.625,0,0,0-2.479-1.436,8.94,8.94,0,0,0-3.923-.842,9.743,9.743,0,0,0-5.3,1.463,10.416,10.416,0,0,0-3.679,3.99,10.264,10.264,0,0,0-1.352,5.306,12.015,12.015,0,0,0,1.352,5.762,10.411,10.411,0,0,0,3.679,3.989,9.74,9.74,0,0,0,5.3,1.463,9.09,9.09,0,0,0,3.945-.842,7.513,7.513,0,0,0,2.457-1.831v2.673h7.082V425.217h-7.082Zm-1.133,12.117a4.837,4.837,0,0,1-3.73,1.534,5.035,5.035,0,0,1-2.644-.708,4.944,4.944,0,0,1-1.841-1.936,4.021,4.021,0,0,1-.661-2.3,5.715,5.715,0,0,1,.685-2.833,5,5,0,0,1,1.841-1.912,5.54,5.54,0,0,1,5.335,0,4.681,4.681,0,0,1,1.794,1.912,6.06,6.06,0,0,1,.638,2.833,4.391,4.391,0,0,1-1.416,3.408" transform="translate(-376.53 -279.692)" fill="#3f2016" fill-rule="evenodd"/>
    <path id="Path_1060" data-name="Path 1060" d="M668.807,425.727A8.894,8.894,0,0,0,660,427.451v-2.234h-7.224V447.19H660V436.043a4.645,4.645,0,0,1,1.062-3.328,3.77,3.77,0,0,1,2.856-1.11,4.3,4.3,0,0,1,1.605.283,3.151,3.151,0,0,1,1.18.8l4.3-5.43a5.873,5.873,0,0,0-2.2-1.535" transform="translate(-429.373 -279.692)" fill="#3f2016" fill-rule="evenodd"/>
    <path id="Path_1061" data-name="Path 1061" d="M724.578,430.015a4.442,4.442,0,0,1-2.561.751,2.4,2.4,0,0,1-1.833-.729,2.818,2.818,0,0,1-.684-2.01v-6.38h5.476v-6.271H719.5v-5.254h-8.391v5.254H707.62v6.271h3.489v6.468q0,4.549,2.517,6.845t7.2,2.3a14.363,14.363,0,0,0,3.246-.353,8.455,8.455,0,0,0,2.583-1.016Z" transform="translate(-465.446 -269.763)" fill="#3f2016" fill-rule="evenodd"/>
    <path id="Path_1062" data-name="Path 1062" d="M496.233,397.574l-6.706,16.382-7.457-16.382H473.9v30.914h7.6V413.519l5.958,11.922h3.886l5.516-12.364.088,15.411h7.551l-.089-30.914Z" transform="translate(-311.712 -261.509)" fill="#3f2016" fill-rule="evenodd"/>
    <path id="Path_1063" data-name="Path 1063" d="M343.362,384.731l-4.228,2.937a22.765,22.765,0,0,1,0,30.507l4.228,2.937.4.365a27.694,27.694,0,0,0,0-37.111Z" transform="translate(-223.07 -252.821)" fill="#3f2016" fill-rule="evenodd"/>
  </g>
</svg>
