<svg xmlns="http://www.w3.org/2000/svg" xmlns:xlink="http://www.w3.org/1999/xlink" width="517.747" height="385" viewBox="0 0 517.747 385">
  <defs>
    <clipPath id="clip-path">
      <rect id="Rectangle_3" data-name="Rectangle 3" width="517.747" height="385" fill="none"/>
    </clipPath>
  </defs>
  <g id="Group_6" data-name="Group 6" transform="translate(0 0)" opacity="0.2">
    <g id="Group_5" data-name="Group 5" transform="translate(0 0)" clip-path="url(#clip-path)">
      <path id="Path_63" data-name="Path 63" d="M286.7,214.338c-19.62,2.585-39.187,1.831-58.82.323a371.382,371.382,0,0,1-102.8-22.357c-24.8-9.332-49.361-19.681-71.221-35.194C40.6,147.7,26.337,139.673,14.332,128.54c-4.385-4.063-8.583-8.33-12.776-12.589-1.3-1.321-2.432-2.5-.588-4.76,14.154-17.34,25.892-36.4,38.455-54.87,5.5-8.081,5.327-7.619,13-1.033A368.148,368.148,0,0,0,96.773,87.422a259,259,0,0,0,55.437,25.918c24.89,8.326,50.167,15.243,77.114,15.91,23.2.575,46.357,2.206,69.425-.493,27.828-3.256,54.347-11.434,80.606-21.394,32.047-12.157,59.378-31.254,85.636-52.508,7.707-6.233,8.513-5.819,13.352,2.58A344.186,344.186,0,0,0,504.261,95.39c4.272,5.553,7.406,11.882,12.257,17.126,3.16,3.417-.471,5.9-2.99,7.968a540.413,540.413,0,0,1-48.537,35.177A355.778,355.778,0,0,1,360.568,201.98c-24.292,6.377-48.8,11.107-73.871,12.358" transform="translate(0 168.963)" fill="#ffb900"/>
      <path id="Path_64" data-name="Path 64" d="M120.875,103.474q-52.183,0-104.362,0c-11.8,0-11.63-.048-11.595-12.27C5,64.3,5.123,37.393,4.7,10.5,4.583,2.608,7.756.756,14.931.773q105.184.3,210.38.17c11.237,0,11.133-.039,11.12,11.329-.017,27.453-.214,54.905.3,82.349.139,7.271-1.853,9.346-9.027,9.285-35.6-.314-71.221-.144-106.825-.144v-.288" transform="translate(15.791 2.597)" fill="#ffb900"/>
      <path id="Path_65" data-name="Path 65" d="M194.239,56.251c2.389,15.034-5.3,27.688-16.18,38.581C167.2,105.7,153.557,111.885,138.2,110.8,111,108.877,81.939,92.888,82.449,54.743,82.863,23.952,111.009-.323,139.512,0c29.41.331,57.8,25.077,54.727,56.248" transform="translate(276.92 0.001)" fill="#ffb900"/>
    </g>
  </g>
</svg>
